<?xml version="1.0" encoding="UTF-8"?>
<svg version="1.1" xmlns="http://www.w3.org/2000/svg" width="512" height="512">
<path d="M0 0 C1.45343969 -0.00461569 2.90687471 -0.01097309 4.36030006 -0.01890898 C8.33188297 -0.03553385 12.30307907 -0.02738739 16.27466297 -0.0149641 C20.56649648 -0.00588774 24.85826499 -0.01989613 29.15008545 -0.03088379 C37.5489298 -0.04864605 45.94763095 -0.04483926 54.34648085 -0.03323323 C61.17397198 -0.02419015 68.00142305 -0.02297869 74.82891846 -0.02732849 C75.80160349 -0.02794142 76.77428851 -0.02855436 77.77644885 -0.02918586 C79.7526002 -0.0304648 81.72875155 -0.03176165 83.70490289 -0.03307623 C102.22398997 -0.04447531 120.74299777 -0.03137886 139.26207185 -0.00987476 C155.1433415 0.0079956 171.02449418 0.00489131 186.90576172 -0.0135498 C205.35975507 -0.03496838 223.81367898 -0.04337674 242.26768303 -0.03110075 C244.23645909 -0.02982659 246.20523515 -0.0285691 248.17401123 -0.02732849 C249.62692595 -0.02640284 249.62692595 -0.02640284 251.10919249 -0.02545848 C257.92642934 -0.02200855 264.74362204 -0.02782625 271.56085205 -0.0372467 C279.87174066 -0.04847902 288.18247819 -0.04540071 296.49334955 -0.02412373 C300.73160012 -0.0136299 304.96959904 -0.00946292 309.2078476 -0.02272034 C313.0915685 -0.03468482 316.97480573 -0.02801551 320.85848308 -0.00681013 C322.2594247 -0.00236115 323.66040763 -0.00457185 325.06132245 -0.01431328 C336.63253191 -0.08857023 345.30505654 1.69072064 353.82177734 9.79699707 C363.04765257 19.19451649 364.09665974 28.91869642 364.04736328 41.68811035 C364.0561132 43.19696612 364.06660389 44.70581264 364.07868958 46.21464539 C364.10639689 50.2821801 364.10995767 54.34940975 364.10896969 58.41702509 C364.11211201 62.67850627 364.13775753 66.9398527 364.16094971 71.20126343 C364.2014126 79.25806124 364.2218275 87.31477831 364.2349236 95.37166202 C364.25082665 104.54954237 364.28925611 113.72728597 364.32951689 122.90508676 C364.41178283 141.77265938 364.46595794 160.6402189 364.50146484 179.50793457 C366.73981081 175.67516805 368.97739245 171.84195585 371.21484375 168.00866699 C371.84415298 166.93110893 372.47346222 165.85355087 373.12184143 164.74333954 C378.41304802 155.67684917 383.62366468 146.56748985 388.79443359 137.4317627 C392.03678422 131.72958394 395.32684959 126.06116598 398.73583984 120.45715332 C399.36458008 119.42292236 399.99332031 118.38869141 400.64111328 117.32312012 C406.68948204 108.17039832 414.73244229 102.7257093 425.37646484 100.13293457 C436.48493436 98.32214957 445.90359025 100.94508229 455.62646484 106.19543457 C463.86050724 112.81846867 470.33860044 120.84680785 471.78369141 131.60998535 C471.98307515 133.91391964 472.07983275 136.19600302 472.12646484 138.50793457 C472.14966797 139.21877197 472.17287109 139.92960938 472.19677734 140.6619873 C472.03110669 152.10491136 465.14930021 162.33096446 459.50146484 171.88293457 C458.52439575 173.55174683 458.52439575 173.55174683 457.52758789 175.25427246 C456.18517706 177.54487992 454.83971807 179.83370373 453.49121094 182.12072754 C451.56646478 185.39728315 449.6654263 188.68643492 447.77099609 191.98059082 C446.61906185 193.96910935 445.4667373 195.95740184 444.31396484 197.94543457 C443.78609375 198.86824219 443.25822266 199.7910498 442.71435547 200.74182129 C442.21742188 201.59147461 441.72048828 202.44112793 441.20849609 203.31652832 C440.78028564 204.05701416 440.3520752 204.7975 439.91088867 205.5604248 C437.41762 209.0055667 435.17206304 210.33723685 431.06396484 211.38293457 C426.16841916 211.5547081 424.16982772 210.06123794 420.68896484 206.82043457 C418.89471265 203.3263645 418.81006127 200.2950176 419.50146484 196.50793457 C421.33300513 192.30500467 423.63930199 188.43177681 426.00146484 184.50793457 C426.62150391 183.44703613 427.24154297 182.3861377 427.88037109 181.29309082 C429.40555044 178.68855378 430.94598983 176.09445277 432.50146484 173.50793457 C426.29995571 169.26109612 419.96492485 165.35916154 413.43896484 161.63293457 C412.57335937 161.13535645 411.70775391 160.63777832 410.81591797 160.12512207 C408.71266715 158.91662436 406.60785733 157.71094513 404.50146484 156.50793457 C400.40557749 161.16235202 397.61121347 166.42576107 394.62646484 171.82043457 C390.03496852 180.03257547 385.38271306 188.20255658 380.62646484 196.32043457 C373.83229932 207.92717343 367.10556463 219.57186653 360.39257812 231.22570801 C357.26466336 236.65453399 354.13288037 242.08112738 351.00146484 247.50793457 C349.75144605 249.6745904 348.50144606 251.84125707 347.25146484 254.00793457 C339.75146484 267.00793457 339.75146484 267.00793457 337.87402344 270.26184082 C336.63178523 272.41526966 335.38991948 274.56891341 334.1484375 276.72277832 C331.25016681 281.75000212 328.34848412 286.77514459 325.43292236 291.7923584 C324.40730857 293.55768668 323.3829182 295.32371928 322.35888672 297.08996582 C321.07875019 299.29709777 319.79635818 301.5029238 318.51123047 303.70715332 C314.94070531 309.86976139 311.59712684 316.09308427 308.50146484 322.50793457 C311.987943 324.466313 315.47510389 326.42346959 318.96289062 328.3795166 C320.14829848 329.04454886 321.33352214 329.70990956 322.51855469 330.37561035 C324.22590981 331.33465366 325.93399189 332.29240241 327.64208984 333.25012207 C329.18171387 334.11419678 329.18171387 334.11419678 330.75244141 334.99572754 C332.9807345 336.22148664 335.21596279 337.39387185 337.50146484 338.50793457 C338.11852295 337.42415527 338.11852295 337.42415527 338.74804688 336.31848145 C346.54652929 322.62843691 354.35240907 308.94370277 362.32983398 295.35681152 C365.36388747 290.18837454 368.3615248 285.00306723 371.31005859 279.78527832 C371.93831543 278.68280762 372.56657227 277.58033691 373.21386719 276.44445801 C374.41811763 274.32963024 375.61297333 272.20941595 376.796875 270.08312988 C377.34005371 269.13405762 377.88323242 268.18498535 378.44287109 267.20715332 C378.914104 266.37014893 379.38533691 265.53314453 379.87084961 264.67077637 C382.63724642 261.00143824 385.44437446 259.66169317 389.93896484 259.00793457 C394.6149044 259.66420679 396.40214721 260.96585727 399.50146484 264.50793457 C401.02457388 268.84879532 401.15654407 270.93467879 399.39086914 275.1751709 C395.81101669 282.1190959 392.04806159 288.91325618 388.06396484 295.63293457 C386.84199546 297.71069787 385.62066573 299.78883747 384.39990234 301.86730957 C383.76793945 302.94174316 383.13597656 304.01617676 382.48486328 305.12316895 C379.36476794 310.44776296 376.2778784 315.79138829 373.19528198 321.13775635 C372.20179321 322.86068732 371.20722683 324.58299677 370.21264648 326.30529785 C369.61057373 327.34927734 369.00850098 328.39325684 368.38818359 329.46887207 C367.85410889 330.39490234 367.32003418 331.32093262 366.76977539 332.27502441 C364.65965028 335.98998193 364.37512713 338.06682212 364.37016296 342.37573242 C364.3641507 344.25136368 364.3641507 344.25136368 364.35801697 346.16488647 C364.35849211 347.55853274 364.35902823 348.95217898 364.35961914 350.3458252 C364.35658825 351.80770981 364.35306699 353.26959348 364.34909058 354.73147583 C364.34119289 357.88536179 364.33605326 361.03923639 364.33279991 364.19313049 C364.32689128 369.18640606 364.31035011 374.17961026 364.29145813 379.17285156 C364.28512025 380.8826675 364.27879464 382.59248348 364.27248096 384.3022995 C364.26931515 385.15877295 364.26614934 386.01524641 364.2628876 386.89767361 C364.22083517 398.5239326 364.18786361 410.15015933 364.17553711 421.77648926 C364.16714049 429.61556307 364.14458667 437.45446113 364.10618144 445.29344702 C364.08646676 449.43982759 364.07400069 453.58594569 364.07901573 457.7323761 C364.08368336 461.63952536 364.06974247 465.54617863 364.04200363 469.453228 C364.03512594 470.88096361 364.03492816 472.30875089 364.0422039 473.73648453 C364.09579117 485.44195299 362.41941724 494.20568712 354.21240234 502.82824707 C345.01242516 511.86018814 335.52039948 513.10291087 323.00292969 513.01586914 C321.54949 513.02048484 320.09605498 513.02684223 318.64262962 513.03477812 C314.67104671 513.05140299 310.69985061 513.04325653 306.72826672 513.03083324 C302.43643321 513.02175688 298.1446647 513.03576527 293.85284424 513.04675293 C285.45399989 513.06451519 277.05529874 513.0607084 268.65644884 513.04910237 C261.82895771 513.04005929 255.00150664 513.03884783 248.17401123 513.04319763 C246.71498369 513.04411703 246.71498369 513.04411703 245.22648084 513.045055 C243.25032948 513.04633394 241.27417814 513.04763079 239.2980268 513.04894537 C220.77893972 513.06034445 202.25993192 513.047248 183.74085784 513.0257439 C167.85958819 513.00787354 151.97843551 513.01097783 136.09716797 513.02941895 C117.64317462 513.05083752 99.1892507 513.05924588 80.73524666 513.04696989 C78.7664706 513.04569573 76.79769453 513.04443825 74.82891846 513.04319763 C73.37600373 513.04227198 73.37600373 513.04227198 71.8937372 513.04132763 C65.07650035 513.03787769 58.25930765 513.04369539 51.44207764 513.05311584 C43.13118903 513.06434816 34.82045149 513.06126986 26.50958014 513.03999287 C22.27132957 513.02949904 18.03333065 513.02533206 13.79508209 513.03858948 C9.91136119 513.05055396 6.02812396 513.04388465 2.14444661 513.02267927 C0.74350499 513.01823029 -0.65747794 513.02044099 -2.05839276 513.03018242 C-13.62960223 513.10443937 -22.30212685 511.3251485 -30.81884766 503.21887207 C-40.97826548 492.87044182 -41.07913559 481.65411143 -41.00646973 467.90930176 C-41.0110822 466.01038511 -41.01743744 464.11147203 -41.0253787 462.21256638 C-41.04204743 457.00964435 -41.03383674 451.80701652 -41.02143383 446.60409355 C-41.01237566 440.98710023 -41.02635689 435.37015714 -41.03735352 429.75317383 C-41.05513507 418.75548583 -41.05130033 407.75790707 -41.03970295 396.76021481 C-41.0306675 387.82174216 -41.02944512 378.88330012 -41.03379822 369.94482422 C-41.03471762 368.03618816 -41.03471762 368.03618816 -41.03565559 366.08899379 C-41.0369345 363.50404643 -41.03823135 360.91909908 -41.03954595 358.33415174 C-41.05062561 334.78889531 -41.03913778 311.24371204 -41.01817556 287.69846791 C-40.99919379 266.21435199 -41.00089233 244.73033091 -41.02001953 223.24621582 C-41.04144811 199.09655066 -41.04985207 174.94695293 -41.03757048 150.79727554 C-41.03629629 148.22186534 -41.0350388 145.64645514 -41.03379822 143.07104492 C-41.03318112 141.8039112 -41.03256401 140.53677747 -41.03192821 139.23124576 C-41.02847528 130.30405322 -41.03430246 121.37689435 -41.04371643 112.44970703 C-41.05493759 101.56966594 -41.05189378 90.68974028 -41.03059345 79.80971241 C-41.02008475 74.25910909 -41.01595835 68.70869819 -41.02919006 63.15809631 C-41.04112321 58.07534245 -41.03453589 52.99295908 -41.01327986 47.91023874 C-41.00881775 46.0732289 -41.01107124 44.23618765 -41.02078301 42.39919806 C-41.08257322 29.73873284 -40.2947837 19.73294886 -31.20947266 10.18762207 C-22.00949548 1.155681 -12.51746979 -0.08704173 0 0 Z M96.50146484 20.50793457 C94.41677518 45.35416501 94.41677518 45.35416501 99.50146484 68.50793457 C103.30052168 72.06189096 106.9653641 72.62913079 112.03547668 72.64837646 C112.93958786 72.65408661 113.84369904 72.65979675 114.77520752 72.66567993 C115.75970886 72.66679779 116.74421021 72.66791565 117.75854492 72.66906738 C118.8012706 72.67403229 119.84399628 72.67899719 120.9183197 72.68411255 C124.36921854 72.69872224 127.82007141 72.70553411 131.27099609 72.71105957 C133.66989646 72.71681187 136.06879681 72.72256959 138.46769714 72.72833252 C143.49889337 72.73883902 148.53007364 72.74468404 153.5612793 72.74816895 C160.00409192 72.75365383 166.44669323 72.77768346 172.88943958 72.8061409 C177.8454398 72.82477561 182.8013892 72.82997333 187.75742149 72.83150482 C190.13244469 72.83452982 192.50746703 72.84255318 194.88245583 72.85569 C198.20720066 72.87276794 201.53143012 72.87086574 204.85620117 72.86437988 C205.83462982 72.87359467 206.81305847 72.88280945 207.82113647 72.89230347 C213.49012691 72.85770727 217.49265252 72.22748718 222.50146484 69.50793457 C233.74641927 57.51331652 226.50146484 30.04102449 226.50146484 20.50793457 C183.60146484 20.50793457 140.70146484 20.50793457 96.50146484 20.50793457 Z M247.50146484 20.50793457 C247.50146484 27.10793457 247.50146484 33.70793457 247.50146484 40.50793457 C249.07444336 40.50680664 250.64742188 40.50567871 252.26806641 40.5045166 C258.1502617 40.50821052 264.03164725 40.55121245 269.91357422 40.60559082 C272.45063025 40.62366654 274.98778405 40.63133478 277.52490234 40.62805176 C281.18972184 40.62517061 284.85254829 40.66073926 288.51708984 40.70324707 C289.6363385 40.69415314 290.75558716 40.6850592 291.90875244 40.6756897 C300.75702194 40.83597188 309.13006033 43.10992856 315.5425415 49.56143188 C320.68244768 55.92625934 322.95561594 62.35662399 322.90019226 70.48692322 C322.90683909 71.26061204 322.91348591 72.03430085 322.92033416 72.83143479 C322.93889479 75.40790088 322.9363636 77.98389975 322.93383789 80.5604248 C322.9428593 82.41365715 322.95318745 84.26688352 322.96472168 86.12010193 C322.99227329 91.14020428 323.00157373 96.16019335 323.00757575 101.18036151 C323.01696416 106.43079784 323.04316797 111.68114972 323.06758118 116.93153381 C323.11123694 126.86900435 323.13978961 136.80645849 323.16290456 146.74399573 C323.18996114 158.05958995 323.2338724 169.37509918 323.27919328 180.6906327 C323.37202636 203.96302056 323.44371327 227.23543508 323.50146484 250.50793457 C326.1145431 247.99771779 327.76408302 245.53733269 329.53271484 242.35949707 C330.09603516 241.35402832 330.65935547 240.34855957 331.23974609 239.31262207 C332.11179687 237.73867676 332.11179687 237.73867676 333.00146484 236.13293457 C334.1572062 234.06233808 335.31343951 231.99201609 336.47021484 229.92199707 C336.98003906 229.00370117 337.48986328 228.08540527 338.01513672 227.13928223 C339.50146484 224.50793457 339.50146484 224.50793457 341.06928921 222.32893181 C342.88160469 218.75916225 342.9278404 215.65154178 342.90260315 211.7406311 C342.91279815 210.57781894 342.91279815 210.57781894 342.92319912 209.39151561 C342.94216852 206.79753531 342.9397345 204.20402728 342.93725586 201.60998535 C342.94623353 199.74870191 342.9564418 197.88742407 342.9677887 196.02615356 C342.9942913 190.97239194 343.00132225 185.91878269 343.00323606 180.86495829 C343.00536847 177.70713497 343.01177309 174.5493504 343.01972771 171.39153671 C343.04748155 160.3738331 343.05973312 149.35623838 343.05737305 138.33850098 C343.0555705 128.06992944 343.08723107 117.80183062 343.13460404 107.53337872 C343.17383505 98.71538447 343.18992457 89.8975447 343.18800682 81.07946384 C343.18724201 75.81362152 343.19578682 70.54819935 343.22754097 65.282444 C343.25659334 60.32953039 343.25681697 55.37743833 343.23499107 50.4244957 C343.23185461 48.60845489 343.23893642 46.79236286 343.25707245 44.97640991 C343.76622072 34.42037762 343.76622072 34.42037762 339.89341736 24.99813843 C334.49473032 20.29107879 328.02518217 20.21450695 321.17944336 20.28088379 C320.37862839 20.28059174 319.57781342 20.28029968 318.75273132 20.27999878 C316.12849769 20.28138252 313.5045546 20.29689829 310.88037109 20.31262207 C309.05191706 20.3163556 307.22346102 20.31920097 305.39500427 20.32119751 C300.59952195 20.32880716 295.80416218 20.34843259 291.00872803 20.37060547 C286.10853737 20.39112153 281.20832677 20.40021152 276.30810547 20.41027832 C266.70582963 20.43168114 257.10367663 20.46684139 247.50146484 20.50793457 Z M-15.45947266 24.05871582 C-15.92611328 24.64008301 -16.39275391 25.2214502 -16.87353516 25.82043457 C-17.59669922 26.68088379 -17.59669922 26.68088379 -18.33447266 27.55871582 C-20.97040058 31.97256828 -20.64189826 37.04156348 -20.62716961 42.03773308 C-20.62892265 42.79104304 -20.63067568 43.544353 -20.63248184 44.32049054 C-20.63714593 46.85303209 -20.63467528 49.38551634 -20.63224792 51.9180603 C-20.63411569 53.74879857 -20.63641625 55.57953644 -20.63911325 57.41027367 C-20.64524189 62.44776594 -20.6450964 67.48524164 -20.64391887 72.52273679 C-20.64371514 77.95296565 -20.64923101 83.38318915 -20.65397644 88.81341553 C-20.66228924 99.45447502 -20.66503156 110.09552898 -20.66558882 120.73659144 C-20.66606365 129.38391582 -20.66811677 138.03123837 -20.67128944 146.67856216 C-20.68009752 171.18342532 -20.68470855 195.68828409 -20.68395897 220.19314884 C-20.68393902 220.85368397 -20.68391908 221.5142191 -20.68389853 222.19477045 C-20.68385809 223.53053331 -20.68381629 224.86629618 -20.68377314 226.20205904 C-20.6831603 246.98713001 -20.69066833 267.77218467 -20.7043457 288.55725098 C-20.7197034 311.90551396 -20.72829945 335.25376633 -20.72738248 358.60203469 C-20.72705015 370.96591757 -20.72981312 383.32978206 -20.74056053 395.69366074 C-20.74965121 406.2192414 -20.75185258 416.74479533 -20.74505111 427.27037822 C-20.74177873 432.64230573 -20.74175506 438.01418191 -20.75040436 443.38610458 C-20.75823855 448.30225977 -20.75686957 453.21832264 -20.74812023 458.13447548 C-20.74657843 459.91438537 -20.74842683 461.69430204 -20.7539803 463.47420393 C-20.76102455 465.89173266 -20.75575924 468.30893617 -20.74742413 470.72645378 C-20.75239231 471.41896482 -20.75736049 472.11147587 -20.76247922 472.82497209 C-20.72452947 478.02429412 -20.25667704 483.28479295 -16.94775391 487.46887207 C-16.36638672 487.9355127 -15.78501953 488.40215332 -15.18603516 488.88293457 C-14.61240234 489.36504395 -14.03876953 489.84715332 -13.44775391 490.34387207 C-9.49785806 492.7027277 -5.15296217 492.63344764 -0.65541267 492.63656902 C0.52064659 492.63979347 1.69670585 492.64301792 2.90840328 492.64634007 C4.84043265 492.64401717 4.84043265 492.64401717 6.81149292 492.64164734 C8.1967529 492.64351581 9.58201235 492.64581666 10.96727097 492.64851266 C14.77339476 492.65463255 18.57949659 492.65449685 22.38562417 492.65331829 C26.49068812 492.65311433 30.595745 492.65863254 34.70080566 492.66337585 C42.74301089 492.67168387 50.78520879 492.67443076 58.82741795 492.67498823 C65.36375826 492.6754633 71.90009615 492.67751756 78.4364357 492.68068886 C96.96484609 492.68949563 115.49325068 492.69410817 134.02166317 492.69335838 C135.02062761 492.69331843 136.01959204 492.69327847 137.04882812 492.6932373 C138.04901101 492.69319642 139.04919389 492.69315554 140.07968535 492.69311342 C156.29269684 492.69270689 172.50568512 492.70227831 188.7186899 492.71637567 C205.3628363 492.73073383 222.00697137 492.73764617 238.65112412 492.7367819 C247.99687628 492.73644974 257.34260409 492.73920477 266.68835068 492.74995995 C274.64476828 492.75905755 282.6011505 492.76124627 290.55757104 492.75445052 C294.61713192 492.75118165 298.6766249 492.75114187 302.73617935 492.75980377 C306.45327061 492.76765342 310.17023993 492.7662531 313.88732816 492.75751964 C315.8672356 492.75525313 317.84714677 492.76282532 319.8270396 492.77075928 C329.6185658 492.8834828 329.6185658 492.8834828 338.47361183 489.18366909 C343.27058875 483.83794269 343.32458899 479.03794139 343.18261719 472.06481934 C343.18349335 470.93238297 343.18436951 469.79994659 343.18527222 468.63319397 C343.18110499 464.90453184 343.13448867 461.17768719 343.08740234 457.44934082 C343.07620726 454.8586068 343.06766855 452.26786005 343.06167603 449.67710876 C343.04113837 443.56420389 342.99389291 437.45204474 342.93357909 431.33942026 C342.86637974 424.37696717 342.83349149 417.41448217 342.80340648 410.45178521 C342.74078852 396.13682104 342.63533781 381.82240087 342.50146484 367.50793457 C341.73845204 368.0806286 341.73845204 368.0806286 340.96002483 368.6648922 C339.92657043 369.44032088 339.92657043 369.44032088 338.87223816 370.23141479 C338.14116537 370.7820396 337.41009258 371.33266441 336.65686607 371.89997482 C334.90612955 373.20604898 333.13231407 374.48114516 331.352005 375.74661255 C327.14935726 379.04727905 324.02443249 381.64164074 322.55184937 386.89678955 C322.23512012 390.86611851 322.26377611 394.74810576 322.41943359 398.71887207 C322.43278736 400.17794777 322.44035031 401.63708664 322.44245911 403.09622192 C322.45935377 406.91714057 322.53646906 410.73410436 322.63232422 414.55377197 C322.78072401 420.65623363 322.85964886 426.75851581 322.89458656 432.86259842 C322.9187686 434.97332779 322.98297946 437.07998095 323.05155945 439.18966675 C323.1616302 448.22492825 321.70522624 454.99518194 316.50146484 462.50793457 C314.00524249 464.97540932 311.59845576 466.85874609 308.50146484 468.50793457 C307.58703613 469.01840332 306.67260742 469.52887207 305.73046875 470.05480957 C299.98601436 472.4776309 293.74071784 471.95551658 287.61474609 471.94152832 C286.26669554 471.94609545 284.91864731 471.9514026 283.57060242 471.95741272 C280.75733931 471.9663105 277.94436064 471.96395633 275.13110352 471.95397949 C271.52954889 471.94244978 267.92896896 471.96277752 264.3275423 471.99189663 C261.54880065 472.01024789 258.77029362 472.00996921 255.99150658 472.00425911 C254.01947744 472.00403175 252.04747032 472.02092044 250.07551575 472.03807068 C248.87714584 472.02868973 247.67877594 472.01930878 246.4440918 472.00964355 C245.39042923 472.00947739 244.33676666 472.00931122 243.25117493 472.00914001 C239.79004032 471.37825914 238.63194955 470.26019841 236.50146484 467.50793457 C235.3389082 463.32273064 235.23107883 461.20321288 236.81396484 457.13293457 C238.50146484 454.50793457 238.50146484 454.50793457 240.50146484 453.50793457 C242.15945337 453.40416905 243.82147534 453.36199999 245.48266602 453.35021973 C246.52102097 453.33995758 247.55937592 453.32969543 248.62919617 453.31912231 C249.75622452 453.31182098 250.88325287 453.30451965 252.04443359 453.29699707 C254.42139351 453.26892026 256.79834654 453.24025574 259.17529297 453.21105957 C262.92992908 453.16984566 266.68443785 453.1329664 270.43920898 453.10656738 C274.0578891 453.07890564 277.67598106 453.03302227 281.29443359 452.98449707 C282.96979439 452.97961777 282.96979439 452.97961777 284.67900085 452.97463989 C290.68610079 452.8802324 295.25304925 452.54783407 300.50146484 449.50793457 C302.57685109 446.39485521 302.74918636 445.74445262 302.72851562 442.22009277 C302.72836456 441.35942703 302.7282135 440.49876129 302.72805786 439.61201477 C302.71773529 438.68692612 302.70741272 437.76183746 302.69677734 436.80871582 C302.69394745 435.85853073 302.69111755 434.90834564 302.6882019 433.92936707 C302.677002 430.89292842 302.65189772 427.85678415 302.62646484 424.82043457 C302.6164348 422.76249612 302.60730899 420.70455305 302.59912109 418.64660645 C302.57706327 413.60026897 302.54253466 408.55415169 302.50146484 403.50793457 C299.52358367 405.2199799 296.87761493 406.88723348 294.41552734 409.28527832 C293.87669922 409.79896973 293.33787109 410.31266113 292.78271484 410.84191895 C291.68453126 411.90513678 290.58815376 412.97022348 289.49365234 414.03723145 C285.39548337 417.93537074 280.99438659 421.97834337 275.20849609 422.85559082 C271.74271073 422.33393653 269.68028062 421.65992798 267.00146484 419.38293457 C264.00077455 413.63161151 265.7306617 407.35834527 266.99853516 401.25280762 C267.15792068 400.458302 267.31730621 399.66379639 267.48152161 398.84521484 C268.00719421 396.23521691 268.54292849 393.62741225 269.07958984 391.01965332 C269.45148029 389.19280066 269.82303659 387.36587995 270.1942749 385.53889465 C270.97319867 381.71421667 271.75732472 377.89064998 272.54492188 374.06774902 C273.548939 369.19144232 274.53823388 364.31228415 275.52336502 359.43213177 C276.28717366 355.6584553 277.05977381 351.88661825 277.83486176 348.11524391 C278.20291483 346.31827469 278.56808848 344.52071303 278.93021393 342.7225399 C281.31108953 330.92768052 283.98339339 320.4006734 290.13818359 309.91418457 C290.79753906 308.7823877 291.45689453 307.65059082 292.13623047 306.48449707 C292.8202637 305.32551802 293.50451069 304.16666509 294.18896484 303.00793457 C294.88556963 301.81820563 295.58153731 300.62810341 296.27685547 299.43762207 C297.53941917 297.27748358 298.80495236 295.11907587 300.07446289 292.9630127 C302.67741097 288.48478415 302.65239369 284.97424834 302.65536499 279.87309265 C302.65974724 278.96836301 302.6641295 278.06363336 302.66864455 277.13148767 C302.68206407 274.08143082 302.68821845 271.03140288 302.69433594 267.98132324 C302.70223434 265.80197518 302.71050313 263.62262843 302.71911621 261.44328308 C302.74536384 254.27083592 302.76064532 247.09838283 302.77490234 239.92590332 C302.78026066 237.46009123 302.78563816 234.99427918 302.7910347 232.52846718 C302.81266631 222.27468847 302.83140471 212.02091136 302.84265709 201.76711559 C302.84559648 199.10577071 302.8485485 196.44442585 302.8515625 193.78308105 C302.85268158 192.79087017 302.85268158 192.79087017 302.85382326 191.77861462 C302.86569287 181.72697111 302.89456006 171.67547377 302.93359375 161.62390137 C302.97875521 149.9567076 303.00660149 138.2896349 303.01257765 126.62235242 C303.01623779 120.44443168 303.02832971 114.26679196 303.06068039 108.0889492 C303.09067078 102.27850449 303.09710498 96.46851218 303.08529663 90.65800667 C303.08507515 88.52344963 303.09344154 86.38887214 303.11095047 84.2543869 C303.1335307 81.34361733 303.1253988 78.43450372 303.10946655 75.52372742 C303.12334864 74.67586534 303.13723073 73.82800327 303.15153348 72.9544484 C303.09282411 68.61155408 302.90052884 67.00651264 300.0897274 63.49478531 C296.27012756 60.56271231 293.52915811 60.38148486 288.82470703 60.39440918 C287.90405457 60.39448471 286.9834021 60.39456024 286.03485107 60.39463806 C285.04930237 60.39979935 284.06375366 60.40496063 283.04833984 60.41027832 C281.52530243 60.41240074 281.52530243 60.41240074 279.97149658 60.41456604 C276.73145592 60.42015941 273.49148459 60.43271072 270.25146484 60.44543457 C268.05354918 60.45045043 265.85563242 60.45501318 263.65771484 60.45910645 C258.27227456 60.47012667 252.88687465 60.48685824 247.50146484 60.50793457 C247.11619629 62.05275513 247.11619629 62.05275513 246.72314453 63.62878418 C246.3735961 64.99354793 246.02363962 66.35820722 245.67333984 67.72277832 C245.42173096 68.73857971 245.42173096 68.73857971 245.16503906 69.77490234 C242.94816798 78.32754936 238.56518928 83.10624009 231.62646484 88.28137207 C225.16024895 92.01370992 218.83829972 91.80431575 211.58032227 91.79846191 C209.78652885 91.80853775 209.78652885 91.80853775 207.95649719 91.81881714 C204.68771756 91.83452777 201.41909068 91.8411703 198.15027785 91.84244871 C196.10420068 91.84387397 194.05814985 91.84815067 192.01207924 91.85344315 C184.86293482 91.87192671 177.71386479 91.88011595 170.56469727 91.87854004 C163.91857974 91.87733941 157.27278737 91.89843039 150.62675208 91.93002737 C144.90592788 91.95624869 139.1852095 91.96690488 133.46432573 91.96562922 C130.05408009 91.96512126 126.64412357 91.97071164 123.23393822 91.99198532 C119.42594988 92.01163153 115.61879342 92.00581136 111.81079102 91.99377441 C110.13422928 92.01063293 110.13422928 92.01063293 108.42379761 92.02783203 C98.51689372 91.94845826 91.43483273 89.13945688 84.22021484 82.33996582 C79.67445441 77.49459845 78.31605462 73.13811054 76.89599609 66.76574707 C76.50118042 65.00835205 76.50118042 65.00835205 76.09838867 63.2154541 C75.90140381 62.32197266 75.70441895 61.42849121 75.50146484 60.50793457 C69.07860965 60.43162924 62.65587215 60.37922778 56.23266602 60.34313965 C54.04935335 60.32808902 51.86607073 60.30764383 49.68286133 60.28161621 C46.53768479 60.24506939 43.39290936 60.22817059 40.24755859 60.21496582 C38.79246132 60.19174004 38.79246132 60.19174004 37.30796814 60.16804504 C31.63233901 60.1666478 27.35519253 60.41919877 22.50146484 63.50793457 C18.71789145 69.89079039 19.08872348 76.19858681 19.14070129 83.46018982 C19.13685638 85.42314108 19.13685638 85.42314108 19.1329338 87.42574793 C19.12624134 91.04713496 19.13820422 94.66825466 19.15326798 98.28960764 C19.16624207 102.19885966 19.16183791 106.10809701 19.15956116 110.0173645 C19.15798929 116.78679402 19.16738943 123.55613668 19.18427467 130.32554436 C19.20867185 140.11291698 19.21647068 149.90024767 19.22023865 159.68764741 C19.226802 175.56762695 19.24676003 191.44756022 19.27514648 207.32751465 C19.30269005 222.75199146 19.32392218 238.1764557 19.33666992 253.60095215 C19.33785218 255.02747094 19.33785218 255.02747094 19.33905832 256.48280828 C19.34297347 261.25383249 19.34676459 266.02485679 19.35049403 270.79588115 C19.38158633 310.36659802 19.43441898 349.93726324 19.50146484 389.50793457 C20.68063477 389.50680664 21.85980469 389.50567871 23.07470703 389.5045166 C27.50340354 389.50822324 31.93103339 389.55133855 36.359375 389.60559082 C38.26588001 389.62361619 40.17251418 389.63134409 42.07910156 389.62805176 C63.28144722 389.60581542 63.28144722 389.60581542 72.50146484 396.50793457 C79.56073485 403.72335275 81.93990817 411.29038517 82.01318359 421.16027832 C82.0311348 422.06041153 82.049086 422.96054474 82.06758118 423.88795471 C82.1214173 426.74040148 82.15549372 429.5926835 82.18896484 432.44543457 C82.22216152 434.38881674 82.25665334 436.33217724 82.29248047 438.2755127 C82.37712825 443.01953393 82.4440662 447.76350857 82.50146484 452.50793457 C84.1197242 452.5100721 84.1197242 452.5100721 85.77067566 452.51225281 C95.93818061 452.52892293 106.10528535 452.57169703 116.27257824 452.64002514 C121.49972966 452.67431474 126.7265882 452.6994082 131.95385742 452.70349121 C136.99860866 452.7077699 142.04269898 452.73619715 147.08724403 452.78136635 C149.01171329 452.79435506 150.93626158 452.79864418 152.86076927 452.79408836 C155.55707518 452.7891921 158.2514422 452.8152303 160.94750977 452.84851074 C162.14081657 452.83557228 162.14081657 452.83557228 163.35823059 452.82237244 C167.43568828 452.90673248 169.27773869 453.32762217 172.49458313 455.92024231 C174.43909815 458.42751836 175.18897769 459.40729724 175.12646484 462.50793457 C175.13935547 463.14730957 175.15224609 463.78668457 175.16552734 464.44543457 C174.06408912 467.86637212 172.31519642 469.29353746 169.50146484 471.50793457 C166.24931284 472.26404251 163.05734641 472.2322627 159.72924805 472.21838379 C158.74971664 472.23357056 157.77018524 472.24875732 156.76097107 472.2644043 C153.52437936 472.30678074 150.28909792 472.31170051 147.05224609 472.31262207 C144.79647789 472.32615355 142.5407149 472.34058113 140.28495789 472.35586548 C135.55466506 472.38129156 130.82483317 472.38655843 126.09448242 472.3795166 C120.04902798 472.37342904 114.00608481 472.43121966 107.96116352 472.5061779 C103.30001873 472.55441189 98.63947395 472.56121953 93.97810936 472.55652237 C91.75063996 472.56056205 89.52314648 472.57897205 87.29592323 472.61233139 C67.71407052 472.87551193 67.71407052 472.87551193 61.86547852 467.74230957 C60.37621581 466.0269487 58.92354841 464.27938727 57.50146484 462.50793457 C56.02598279 460.99405138 54.51033726 459.52938204 52.98724842 458.06349182 C51.3169142 456.45395065 49.67288225 454.82130049 48.03417969 453.17959595 C47.18542267 452.32952658 47.18542267 452.32952658 46.31951904 451.46228409 C45.74018616 450.88180187 45.16085327 450.30131966 44.56396484 449.70324707 C43.35008039 448.49003792 42.13604767 447.27697711 40.921875 446.0640564 C38.39909153 443.54273531 35.87809577 441.01964439 33.35839844 438.49523926 C30.12936855 435.26046978 26.89581092 432.03026918 23.66093445 428.80134773 C21.1627439 426.30676587 18.66693377 423.8098134 16.17184448 421.31212997 C14.97965869 420.11927798 13.78673204 418.92716595 12.5930481 417.73581314 C10.93248583 416.07778707 9.27515653 414.4165957 7.61865234 412.7545166 C6.88156792 412.02046852 6.88156792 412.02046852 6.1295929 411.27159119 C2.00248251 407.11868089 0.25286259 404.72728566 0.23860931 398.83117008 C0.23092702 397.64127604 0.22324473 396.45138199 0.21532965 395.22543055 C0.21706261 393.91165019 0.21879558 392.59786984 0.22058105 391.24427795 C0.21541497 389.83955605 0.20938899 388.43483709 0.20257425 387.03012222 C0.18641215 383.16071461 0.18285388 379.29138115 0.18137932 375.42194378 C0.17768184 371.25197358 0.16258862 367.08204203 0.14910889 362.91209412 C0.12192186 353.78779547 0.10988862 344.66351437 0.10108757 335.53918195 C0.09556411 329.84089043 0.08708946 324.1426057 0.07807922 318.44431877 C0.05368735 302.66604952 0.03309253 286.88778572 0.02632904 271.10949802 C0.02588991 270.09919908 0.02545078 269.08890015 0.02499834 268.04798609 C0.02456178 267.03526369 0.02412523 266.02254129 0.02367544 264.97913033 C0.02278851 262.92696416 0.02189538 260.874798 0.02099609 258.82263184 C0.0203318 257.2957128 0.0203318 257.2957128 0.0196541 255.73794692 C0.01176407 239.2565201 -0.0231228 222.77527048 -0.06972295 206.29391206 C-0.11718572 189.37068637 -0.14207641 172.44754948 -0.1444068 155.52425617 C-0.14623874 146.02340774 -0.15770292 136.5227899 -0.19404602 127.02200508 C-0.22489698 118.92836631 -0.23506071 110.83502933 -0.21856982 102.74134291 C-0.21077266 98.6141399 -0.21253558 94.48754413 -0.24068451 90.36041641 C-0.26626263 86.57543972 -0.26368348 82.79152334 -0.23950309 79.00654709 C-0.23377193 77.00236512 -0.25738737 74.99816398 -0.2823472 72.99412924 C-0.18191338 63.74787456 1.76856961 55.19877712 8.55523443 48.47241312 C10.48765864 46.90596269 12.30432892 45.67793841 14.50146484 44.50793457 C15.4445752 43.99907715 16.38768555 43.49021973 17.359375 42.96594238 C22.69799642 40.71107246 28.29019765 41.02806546 33.99755859 40.99621582 C35.18624039 40.97826462 36.37492218 40.96031342 37.59962463 40.94181824 C41.37936912 40.88783187 45.15898812 40.8538559 48.93896484 40.82043457 C51.50864371 40.78725132 54.07830606 40.75276073 56.64794922 40.71691895 C62.93236376 40.63211158 69.21674182 40.565244 75.50146484 40.50793457 C75.50146484 33.90793457 75.50146484 27.30793457 75.50146484 20.50793457 C64.93089101 20.46269723 54.36038178 20.42602611 43.78973293 20.40431023 C38.88102552 20.39388617 33.97238793 20.3797521 29.0637207 20.35705566 C24.32398355 20.3352782 19.58431344 20.32335558 14.84453011 20.31818008 C13.03888964 20.31449313 11.23325273 20.30729346 9.42764091 20.29647446 C6.89284289 20.28189435 4.35831973 20.27995935 1.82348633 20.28088379 C1.0818927 20.27369324 0.34029907 20.26650269 -0.42376709 20.25909424 C-5.7672027 20.28009368 -11.1395701 20.64237854 -15.45947266 24.05871582 Z M421.75537109 125.08996582 C418.96774441 128.28079038 416.31459809 131.66835829 414.50146484 135.50793457 C415.82893778 139.49035337 418.23575791 140.37955151 421.72412109 142.30090332 C422.65423256 142.82724113 422.65423256 142.82724113 423.60313416 143.36421204 C425.58533535 144.48330098 427.5744307 145.5894446 429.56396484 146.69543457 C430.90883941 147.45175463 432.25324677 148.20890612 433.59716797 148.96691895 C436.89325572 150.82361654 440.19558336 152.66873586 443.50146484 154.50793457 C448.43064736 149.68416657 450.74510174 144.85221303 451.00146484 137.88293457 C450.75238106 131.67301813 448.59537192 128.49163601 444.12646484 124.25793457 C436.9189824 119.45294627 428.36802544 119.0986347 421.75537109 125.08996582 Z M300.50146484 342.50793457 C298.36235388 348.59604041 297.08301591 354.76415849 295.78710938 361.0760498 C295.37661698 363.06969568 294.95696156 365.06126662 294.53662109 367.05285645 C294.27494141 368.31807129 294.01326172 369.58328613 293.74365234 370.88684082 C293.50501465 372.03740967 293.26637695 373.18797852 293.02050781 374.37341309 C292.55847206 377.16366566 292.39656322 379.68911588 292.50146484 382.50793457 C298.28481371 378.42557066 303.40253861 373.89322092 308.55175781 369.06066895 C313.32710444 364.60460826 318.31925809 360.48524901 323.50146484 356.50793457 C319.22241512 352.84506801 314.60395223 350.07286823 309.75146484 347.25793457 C308.97158203 346.79902832 308.19169922 346.34012207 307.38818359 345.86730957 C304.13639507 343.60550102 304.13639507 343.60550102 300.50146484 342.50793457 Z M35.50146484 409.50793457 C40.45690622 415.48528366 45.81336037 420.96981392 51.31396484 426.44543457 C52.18472656 427.32006348 53.05548828 428.19469238 53.95263672 429.0958252 C54.77957031 429.92146973 55.60650391 430.74711426 56.45849609 431.59777832 C57.58735229 432.72494263 57.58735229 432.72494263 58.73901367 433.87487793 C60.22326337 435.62121246 60.22326337 435.62121246 61.50146484 435.50793457 C61.64730549 432.27924711 61.7357059 429.05141092 61.81396484 425.82043457 C61.85585937 424.90842285 61.89775391 423.99641113 61.94091797 423.0567627 C62.02476454 418.44520131 62.03678998 416.23490795 59.23193359 412.42590332 C55.59748673 409.87295138 52.77048944 409.37710863 48.39208984 409.41027832 C47.2609375 409.4151123 47.2609375 409.4151123 46.10693359 409.42004395 C45.32962891 409.42842285 44.55232422 409.43680176 43.75146484 409.44543457 C42.95869141 409.44994629 42.16591797 409.45445801 41.34912109 409.45910645 C39.39986976 409.47084892 37.45065746 409.48878311 35.50146484 409.50793457 Z " fill="#000000" transform="translate(40.49853515625,-0.5079345703125)"/>
<path d="M0 0 C1.407395 -0.01654042 2.81470665 -0.04380628 4.22167969 -0.08203125 C6.25686943 -0.13700408 8.29009407 -0.15870111 10.32592773 -0.17333984 C11.5438501 -0.19315918 12.76177246 -0.21297852 14.01660156 -0.23339844 C18.21183727 0.51069161 19.64528688 2.10567674 22.30639648 5.35009766 C24.5185507 9.77440608 23.58113857 15.74191276 23.61889648 20.60009766 C23.64790039 21.82857422 23.6769043 23.05705078 23.70678711 24.32275391 C23.7866413 35.66204928 23.7866413 35.66204928 19.30639648 40.35009766 C17.04863833 41.47897673 15.56882723 41.61400378 13.05639648 41.72509766 C12.30874023 41.77408203 11.56108398 41.82306641 10.79077148 41.87353516 C7.07868476 41.09142883 5.15757637 38.8229799 2.30639648 36.35009766 C1.80162781 36.85930756 1.29685913 37.36851746 0.77679443 37.89315796 C-3.98496127 42.69501562 -8.75153765 47.49202909 -13.52356339 52.28368187 C-15.97664005 54.74718825 -18.42782457 57.21251719 -20.87475586 59.68212891 C-23.68902865 62.52232249 -26.51138547 65.35435913 -29.33422852 68.18603516 C-30.21040833 69.07253754 -31.08658813 69.95903992 -31.98931885 70.87240601 C-32.80986755 71.69310577 -33.63041626 72.51380554 -34.47583008 73.359375 C-35.19530823 74.08329437 -35.91478638 74.80721375 -36.65606689 75.55307007 C-40.02020099 78.52010473 -41.91225629 79.3370752 -46.44360352 79.41259766 C-49.95354123 78.85555426 -51.81507135 77.6896958 -54.42797852 75.31103516 C-55.12052734 74.68108643 -55.81307617 74.0511377 -56.52661133 73.40209961 C-60.14977107 69.97120083 -63.68660557 66.46180946 -67.19360352 62.91259766 C-67.92063477 62.18105469 -68.64766602 61.44951172 -69.39672852 60.69580078 C-71.1646985 58.91619941 -72.93026729 57.13428848 -74.69360352 55.35009766 C-78.58403985 56.92805681 -81.17055719 59.58564147 -84.04516602 62.54150391 C-84.54527191 63.04681137 -85.04537781 63.55211884 -85.56063843 64.07273865 C-87.15147294 65.6813285 -88.73543435 67.29646585 -90.31860352 68.91259766 C-91.90978128 70.53140003 -93.50240052 72.14871587 -95.09799194 73.76316833 C-96.08907449 74.76650193 -97.07747159 75.77249674 -98.06289673 76.78138733 C-101.42732331 80.19492438 -103.22456384 81.50990983 -108.00610352 81.66259766 C-111.52901951 81.63423279 -112.58719271 81.41660441 -115.69360352 79.47509766 C-118.65752678 76.32592918 -119.21981364 73.91170269 -119.16752625 69.54957581 C-118.57350423 66.79271617 -117.51865585 65.5949661 -115.61083984 63.53344727 C-114.97344879 62.83967987 -114.33605774 62.14591248 -113.67935181 61.43112183 C-110.65901249 58.26586712 -107.61664205 55.13010436 -104.51782227 52.04150391 C-103.8665889 51.38931381 -103.21535553 50.73712372 -102.54438782 50.06517029 C-101.18348816 48.7035963 -99.82134972 47.34325942 -98.45800781 45.98413086 C-96.36544027 43.89697492 -94.27833527 41.80446134 -92.19165039 39.71142578 C-90.86319533 38.38363061 -89.53443058 37.05614518 -88.20532227 35.72900391 C-87.26942513 34.79007042 -87.26942513 34.79007042 -86.31462097 33.83216858 C-80.98103335 28.52767419 -80.98103335 28.52767419 -76.06860352 27.85009766 C-72.3446723 27.9063441 -70.70008451 28.81582956 -67.98266602 31.32275391 C-67.29124512 31.95777832 -66.59982422 32.59280273 -65.88745117 33.24707031 C-62.10249153 36.87534122 -58.38016887 40.55950253 -54.69360352 44.28759766 C-53.91887695 45.06683594 -53.14415039 45.84607422 -52.34594727 46.64892578 C-50.45949595 48.54702186 -48.57544106 50.44742914 -46.69360352 52.35009766 C-43.85177881 51.05773278 -41.79444614 49.70009274 -39.59326172 47.49267578 C-39.01618973 46.91868042 -38.43911774 46.34468506 -37.84455872 45.7532959 C-36.92872261 44.82668152 -36.92872261 44.82668152 -35.99438477 43.88134766 C-35.35873093 43.2452356 -34.72307709 42.60912354 -34.06816101 41.95373535 C-32.72861238 40.61117099 -31.39148966 39.26618236 -30.05664062 37.91894531 C-28.00842181 35.85243665 -25.95228019 33.79407554 -23.89477539 31.73681641 C-22.59417162 30.43129843 -21.29402546 29.12532437 -19.99438477 27.81884766 C-19.37775467 27.20110474 -18.76112457 26.58336182 -18.12580872 25.94689941 C-15.0367501 22.93096968 -15.0367501 22.93096968 -12.69360352 19.35009766 C-13.31235352 19.08197266 -13.93110352 18.81384766 -14.56860352 18.53759766 C-16.69360352 17.35009766 -16.69360352 17.35009766 -18.69360352 14.35009766 C-19.36587242 7.40331894 -19.36587242 7.40331894 -16.81860352 3.41259766 C-12.17566652 -1.09378237 -6.102824 0.05255545 0 0 Z " fill="#000000" transform="translate(253.693603515625,117.64990234375)"/>
<path d="M0 0 C0.72353306 -0.00779995 1.44706613 -0.01559991 2.19252443 -0.02363622 C4.61190305 -0.04354696 7.02970699 -0.02779689 9.44909668 -0.01205444 C11.18555112 -0.01883103 12.92199837 -0.0277344 14.65843201 -0.03860474 C19.37131048 -0.06139988 24.08364172 -0.0525609 28.79652977 -0.03670931 C33.72830049 -0.02405143 38.66002432 -0.03579011 43.59179688 -0.04364014 C51.87390558 -0.05273702 60.15579135 -0.04074775 68.43786621 -0.01693726 C78.0134564 0.01027409 87.5885143 0.00145995 97.16409159 -0.02606928 C105.38505564 -0.04875822 113.60585944 -0.05196149 121.82684469 -0.03887594 C126.73707396 -0.03108025 131.64705303 -0.03004309 136.55726624 -0.04655838 C141.17364484 -0.06100075 145.78933711 -0.05098586 150.40564156 -0.0220871 C152.09994428 -0.01547501 153.79430476 -0.01737611 155.48858452 -0.02840042 C157.80168197 -0.04206376 160.11257991 -0.02493453 162.42553711 0 C164.36677082 0.00282769 164.36677082 0.00282769 166.34722137 0.00571251 C170.57413587 0.7959551 172.03474612 2.34902323 174.71276855 5.63491821 C176.1458092 8.5009995 176.01921011 10.44792604 175.71276855 13.63491821 C173.90372492 17.25300548 172.769219 19.18364928 169.00747585 20.79049969 C165.41599649 21.71097955 162.32892093 21.88943677 158.62245178 21.89561462 C157.93214384 21.89944017 157.24183591 21.90326572 156.53060955 21.90720719 C154.23000379 21.91748139 151.92965022 21.91355577 149.62902832 21.90957642 C147.97449514 21.91392597 146.31996397 21.91910993 144.66543579 21.92506409 C140.17990419 21.9384387 135.69445693 21.9390345 131.20890927 21.93650079 C127.46138614 21.9354301 123.71388 21.9403169 119.96636051 21.94510621 C111.12424853 21.95619592 102.28217904 21.95664171 93.44006348 21.95059204 C84.32415586 21.94455088 75.20840254 21.9568681 66.09252125 21.97816211 C58.25964931 21.99578502 50.42682646 22.00177841 42.59393543 21.99852437 C37.91844704 21.99671258 33.24306875 21.99933733 28.56759834 22.01323891 C24.17051955 22.02582397 19.77368113 22.02386676 15.37660599 22.01082802 C13.76537049 22.00846422 12.15411804 22.01118988 10.54290199 22.01945114 C8.33834691 22.02993732 6.13459568 22.02180383 3.93006897 22.00914001 C2.69805032 22.00930776 1.46603167 22.0094755 0.19667912 22.00964832 C-3.97281525 21.56117668 -6.5779927 20.57970194 -10.28723145 18.63491821 C-12.387859 15.48397688 -12.63036431 14.41248161 -12.72473145 10.75991821 C-12.76469238 9.91687134 -12.80465332 9.07382446 -12.8458252 8.20523071 C-11.35963252 1.3666658 -6.27619821 0.0091422 0 0 Z " fill="#000000" transform="translate(115.2872314453125,230.36508178710938)"/>
<path d="M0 0 C2.71214283 1.66901097 3.64249771 2.95676233 4.66796875 5.94921875 C5.57037243 10.36868295 5.25530578 13.31307004 2.8125 17.125 C1.57382803 18.77464666 0.29709588 20.39588509 -1 22 C-1.90829183 23.14785253 -2.81578457 24.29633764 -3.72265625 25.4453125 C-5.76694074 28.02223194 -7.82777051 30.58487057 -9.8984375 33.140625 C-12.7858314 36.71446946 -15.5911443 40.34525323 -18.375 44 C-28.87531236 57.70780327 -28.87531236 57.70780327 -32.98828125 58.2734375 C-37.29220888 58.46150829 -39.30972249 58.53688251 -42.8125 55.8125 C-43.8953125 54.4203125 -43.8953125 54.4203125 -45 53 C-45.763125 52.113125 -46.52625 51.22625 -47.3125 50.3125 C-49 48 -49 48 -49 46 C-54.20253786 49.86855379 -57.95827919 54.48042888 -61.94921875 59.57421875 C-64.08065308 62.09540108 -65.72452589 63.76919992 -69.05078125 64.37109375 C-73.35658559 64.49751633 -75.47566649 64.33927462 -79.1875 61.9375 C-80.15821759 60.99125428 -81.09397361 60.00835995 -82 59 C-82.56074219 58.37609375 -83.12148437 57.7521875 -83.69921875 57.109375 C-85.16410199 55.42936905 -86.59435171 53.72964523 -88 52 C-88.70125 52.721875 -89.4025 53.44375 -90.125 54.1875 C-99.06303419 63 -99.06303419 63 -106 63 C-110.01519063 61.48483372 -111.60368353 60.5944747 -114 57 C-114.92171554 52.9379262 -114.7732767 49.40639701 -112.75 45.7265625 C-110.94762497 43.34842878 -109.04384244 41.17437982 -107 39 C-106.23171875 38.17628906 -105.4634375 37.35257812 -104.671875 36.50390625 C-96.77490228 28.33236991 -96.77490228 28.33236991 -91.1953125 27.6640625 C-84.89119247 27.58385741 -80.93625267 27.66572936 -76 32 C-74.33715169 33.33809232 -72.67101238 34.67211704 -71 36 C-70.18015625 35.08476562 -69.3603125 34.16953125 -68.515625 33.2265625 C-67.42739608 32.02575817 -66.33883705 30.82525294 -65.25 29.625 C-64.71117187 29.02171875 -64.17234375 28.4184375 -63.6171875 27.796875 C-63.08867187 27.21679688 -62.56015625 26.63671875 -62.015625 26.0390625 C-61.29294434 25.23782959 -61.29294434 25.23782959 -60.55566406 24.42041016 C-56.3546387 20.58463402 -52.15712525 20.57773366 -46.6953125 20.6796875 C-42.91970332 21.12838308 -40.80169968 22.47847029 -38 25 C-36.98009951 26.31817327 -35.976232 27.64916735 -35 29 C-28.86146913 21.75130929 -22.93750342 14.40228468 -17.2265625 6.8125 C-12.04996511 0.27364014 -8.49251315 -2.14025029 0 0 Z " fill="#000000" transform="translate(217,308)"/>
<path d="M0 0 C1.29807083 -0.0087616 2.59614166 -0.01752319 3.93354797 -0.02655029 C7.48749861 -0.04931419 11.04072223 -0.04051952 14.59468532 -0.02465487 C18.31815314 -0.01197775 22.04155958 -0.02374124 25.76502991 -0.03158569 C32.0185969 -0.04067818 38.2718685 -0.02870632 44.52539062 -0.00488281 C51.74821002 0.02231616 58.97032344 0.01352223 66.19312567 -0.01401484 C72.40054888 -0.03673081 78.60775998 -0.0398936 84.81521136 -0.02682149 C88.51992485 -0.01903897 92.22430694 -0.01795166 95.92899895 -0.03450394 C100.06116155 -0.05167685 104.19211444 -0.02785289 108.32421875 0 C109.54779083 -0.01012115 110.77136292 -0.02024231 112.03201294 -0.03067017 C121.27203207 0.08476978 121.27203207 0.08476978 124.98561096 3.03115845 C128.08926977 6.65359753 128.03444019 8.68088464 127.75415039 13.26806641 C126.94217221 16.93099021 125.23823101 18.52528731 122.22680664 20.64697266 C119.11815387 21.67955403 116.23339748 21.77691066 112.97148132 21.78741455 C111.37551117 21.79597977 111.37551117 21.79597977 109.74729919 21.80471802 C108.00405113 21.80639481 108.00405113 21.80639481 106.22558594 21.80810547 C104.99754242 21.81307037 103.7694989 21.81803528 102.50424194 21.82315063 C99.13839777 21.83524822 95.77261563 21.84271449 92.40675712 21.84716129 C90.30208619 21.85009618 88.19742066 21.85420177 86.09275246 21.85866547 C79.50238022 21.8723335 72.91202037 21.88200358 66.32163495 21.88586736 C58.72386866 21.89034672 51.12628239 21.90789172 43.52857083 21.93686795 C37.64902019 21.95851017 31.76952011 21.96857299 25.88993007 21.96990848 C22.38139562 21.97095468 18.87303057 21.97682292 15.36453819 21.99472809 C11.44837049 22.0143257 7.53242645 22.00990966 3.61621094 22.00341797 C1.88207191 22.01724014 1.88207191 22.01724014 0.11289978 22.03134155 C-5.93385899 21.99994088 -10.49798116 21.72850234 -15.77319336 18.64697266 C-17.87382091 15.49603133 -18.11632622 14.42453605 -18.21069336 10.77197266 C-18.2506543 9.92892578 -18.29061523 9.08587891 -18.33178711 8.21728516 C-17.71362777 5.37288762 -16.76618482 3.71781223 -14.64936638 1.71278763 C-10.30498148 -0.75516731 -4.84926946 -0.04004598 0 0 Z " fill="#000000" transform="translate(120.773193359375,270.35302734375)"/>
<path d="M0 0 C2.35598794 2.75987159 3.09550797 3.75297011 3.5 7.3125 C3.10970973 11.37151885 1.69162622 13.39551684 -0.8125 16.5625 C-4.26989557 18.29119779 -8.03225568 18.05216895 -11.8125 17.5625 C-14.68279869 15.76856332 -16.30381638 14.57986724 -17.8125 11.5625 C-18.28026468 6.88485317 -18.54219391 3.8998883 -15.5625 0.125 C-10.51550514 -4.57788158 -5.36020105 -4.64550758 0 0 Z " fill="#000000" transform="translate(457.8125,227.4375)"/>
<path d="M0 0 C2.87029869 1.79393668 4.49131638 2.98263276 6 6 C6.5811138 13.08958838 6.5811138 13.08958838 4.125 16.9375 C0.64240255 20.31766811 -2.03637499 20.40798732 -6.73828125 20.33984375 C-9 20 -9 20 -12 17.9375 C-14.40813237 14.40055558 -15 12.27436594 -15 8 C-12.09343948 0.29761462 -7.71725419 -1.13727956 0 0 Z " fill="#000000" transform="translate(250,452)"/>
</svg>
