<?xml version="1.0" encoding="UTF-8"?>
<svg version="1.1" xmlns="http://www.w3.org/2000/svg" width="512" height="512">
<path d="M0 0 C6.00544737 3.35230789 10.41582229 8.26451087 15.16015625 13.17578125 C16.94017406 14.99080449 18.72079088 16.80524045 20.50195312 18.61914062 C23.29551375 21.47484065 26.08517107 24.33389061 28.86254883 27.20532227 C31.55259574 29.97970707 34.26091091 32.7351244 36.97265625 35.48828125 C37.80297867 36.35584549 38.63330109 37.22340973 39.48878479 38.11726379 C40.26987106 38.90525864 41.05095734 39.69325348 41.85571289 40.50512695 C42.53710831 41.20587845 43.21850372 41.90662994 43.92054749 42.62861633 C45.95327306 44.28024442 45.95327306 44.28024442 48.62388611 43.75598145 C49.40800369 43.50650757 50.19212128 43.25703369 51 43 C51.71349609 42.80172607 52.42699219 42.60345215 53.16210938 42.39916992 C54.24202148 42.06816284 54.24202148 42.06816284 55.34375 41.73046875 C73.16643025 36.38314196 91.39451888 31.93936503 110.08984375 31.76171875 C110.94317291 31.75187958 111.79650208 31.74204041 112.6756897 31.73190308 C131.46318265 31.56000975 149.62414504 31.62285124 168 36 C169.01191406 36.23605957 170.02382813 36.47211914 171.06640625 36.71533203 C220.02769939 48.47787318 262.84410619 76.77362511 295.328125 115.046875 C297.3350203 117.39137885 299.41781174 119.65966989 301.5 121.9375 C314.12763673 135.92736466 314.12763673 135.92736466 314.3125 143.75 C314.34988281 144.77609375 314.38726562 145.8021875 314.42578125 146.859375 C313.5718918 153.15778896 308.90642593 157.40988457 304.6875 161.875 C303.70374141 162.93165371 302.72066767 163.98894544 301.73828125 165.046875 C301.26600098 165.55412109 300.7937207 166.06136719 300.30712891 166.58398438 C298.62896624 168.40194169 296.99661659 170.25653311 295.375 172.125 C277.03124027 193.18795234 256.6902265 213.3762027 232 227 C231.34 227 230.68 227 230 227 C234.23301742 232.12745607 238.79968882 236.8726123 243.51953125 241.546875 C244.10757538 242.1294104 244.69561951 242.7119458 245.30148315 243.31213379 C247.76311574 245.74605732 250.22837397 248.17623591 252.69799805 250.60205078 C254.51789475 252.3917782 256.33154482 254.18765172 258.14453125 255.984375 C258.98199638 256.8016507 258.98199638 256.8016507 259.83638 257.63543701 C264.56341922 262.33163222 266.2904019 265.22558917 266.375 271.875 C266.27363418 277.08266907 265.69948398 280.10580633 262 284 C257.35351746 288.41415841 253.11206934 288.46758261 247 288.53125 C241.27359547 287.5171992 237.24528153 283.49529645 233.23801804 279.48970032 C232.32858908 278.58548686 231.41916013 277.6812734 230.48217273 276.74965954 C229.48710788 275.75027126 228.49213817 274.75078826 227.49725342 273.7512207 C226.42972436 272.68599729 225.36175991 271.62121007 224.2933991 270.55682087 C221.36469981 267.63646358 218.44226249 264.70990968 215.52083302 261.78228235 C212.36699379 258.62391734 209.20740448 255.47131364 206.04855347 252.31796265 C199.86414913 246.14245196 193.68516445 239.96154591 187.50810525 233.77868915 C182.48905358 228.75512171 177.46805443 223.73350857 172.44565582 218.71328735 C171.73100301 217.998941 171.01635019 217.28459466 170.28004123 216.54860145 C168.82828037 215.09748003 167.37651502 213.64636311 165.92474523 212.19525063 C152.31220558 198.58841398 138.70580294 184.97545378 125.10148898 171.36039364 C113.42269228 159.67265763 101.73865633 147.99018072 90.05078125 136.31152344 C76.48151928 122.75295801 62.91549929 109.19116241 49.35465741 95.62417507 C47.90946951 94.17835006 46.46427743 92.73252924 45.01908112 91.28671265 C44.30799202 90.575315 43.59690292 89.86391735 42.86426567 89.13096219 C37.84756115 84.11252918 32.82853616 79.09642412 27.80861664 74.08120728 C21.69455097 67.97274343 15.58404649 61.86074409 9.47811744 55.74414659 C6.36142615 52.62218977 3.24313998 49.50187074 0.12051773 46.38584518 C-2.73577845 43.53549207 -5.58744594 40.68059307 -8.43543348 37.82193887 C-9.46852999 36.7866014 -10.50332981 35.75296031 -11.53996149 34.72116244 C-12.94503255 33.32214364 -14.34339545 31.91639719 -15.7413826 30.51029968 C-16.52111348 29.73024409 -17.30084437 28.9501885 -18.10420346 28.14649487 C-22.36383731 23.3235711 -22.43452858 19.18328069 -22.3125 12.9140625 C-21.74397844 7.61259899 -19.22134216 5.16027505 -15.5 1.625 C-10.44221514 -0.72325726 -5.48314207 -0.97097307 0 0 Z M73 71 C77.98404168 77.03331362 83.41915303 82.5184171 89 88 C93.81971474 86.41708927 98.56850355 84.6870164 103.31640625 82.90234375 C116.68372742 78.40765497 134.17165834 79.36218414 147 85 C147.87398438 85.36222656 148.74796875 85.72445312 149.6484375 86.09765625 C162.28016735 91.83051826 171.65385421 101.29819962 178.25 113.3125 C178.5795166 113.90426025 178.9090332 114.49602051 179.24853516 115.10571289 C183.99628534 124.15800897 185.52178268 133.29840119 185.375 143.4375 C185.36194824 144.94582397 185.36194824 144.94582397 185.34863281 146.48461914 C185.16938896 155.55773716 184.00479989 163.4361619 179.6875 171.5 C177.67473143 174.6714639 177.67473143 174.6714639 178.55419922 176.86621094 C180.53203757 179.78520911 182.93808831 182.18368954 185.4453125 184.640625 C186.24012527 185.43119293 186.24012527 185.43119293 187.05099487 186.23773193 C188.73767825 187.91325675 190.43119564 189.58167722 192.125 191.25 C193.27259388 192.38755851 194.41973461 193.52557436 195.56640625 194.6640625 C198.37238137 197.44803465 201.18450464 200.2256576 204 203 C208.62151847 201.52326119 212.66857373 199.69402384 216.8125 197.1875 C217.45558105 196.79860596 218.09866211 196.40971191 218.76123047 196.0090332 C231.99554305 187.80795774 243.84822818 177.81752253 255 167 C255.84304688 166.1853125 256.68609375 165.370625 257.5546875 164.53125 C263.80685036 158.38434241 269.60145804 151.91013371 275 145 C273.70176525 141.18437605 272.25033142 138.92909121 269.3125 136.1875 C266.63079712 133.61152734 264.09302612 131.02299939 261.6875 128.1875 C253.52970745 118.78031579 244.69528696 110.76441674 234.75 103.31884766 C233.10852366 102.08178638 231.49079647 100.81338873 229.875 99.54296875 C186.81533735 66.40883256 124.9589701 54.95173084 73 71 Z M115 113 C119.23723978 118.05693059 123.66091625 122.80841147 128.33203125 127.46484375 C129.00924728 128.14301651 129.68646332 128.82118927 130.38420105 129.51991272 C131.80235102 130.93873833 133.22174506 132.35632147 134.64233398 133.77270508 C136.82718386 135.95214752 139.00658031 138.13694282 141.18554688 140.32226562 C142.56738736 141.7034462 143.94953754 143.08431702 145.33203125 144.46484375 C145.9861348 145.12097153 146.64023834 145.7770993 147.31416321 146.45310974 C149.77730245 149.52507202 149.77730245 149.52507202 153 151 C153.57604933 139.89504904 152.90269559 131.54200008 145.8125 122.6875 C141.33299547 117.91837233 135.53026573 114.12147676 129 113 C126.5842094 112.93168013 124.16665287 112.91512358 121.75 112.9375 C119.85507813 112.95103516 119.85507813 112.95103516 117.921875 112.96484375 C116.95765625 112.97644531 115.9934375 112.98804688 115 113 Z " fill="#000000" transform="translate(134,112)"/>
<path d="M0 0 C3.76603869 1.56282982 6.13639151 3.9063475 8.984375 6.7890625 C9.44483215 7.25234955 9.90528931 7.7156366 10.37969971 8.19296265 C11.84125078 9.66565898 13.29567168 11.14517403 14.75 12.625 C15.74302611 13.62806322 16.73651089 14.63067257 17.73046875 15.6328125 C20.15897941 18.08330835 22.58114675 20.5399667 25 23 C21.51183903 26.5465172 18.00296037 29.60531303 14 32.5625 C-0.54682986 43.51811392 -13.79489924 56.65747103 -25 71 C-23.70176525 74.81562395 -22.25033142 77.07090879 -19.3125 79.8125 C-16.60990608 82.40834874 -14.05281191 85.0204468 -11.625 87.875 C-3.81312386 96.88060103 4.72964582 104.52482289 14.23388672 111.66503906 C15.88105864 112.9100952 17.50596033 114.18446318 19.12890625 115.4609375 C41.49657848 132.4219454 67.73010213 142.39523531 95 148 C96.14726562 148.23589844 97.29453125 148.47179687 98.4765625 148.71484375 C104.90299976 149.85233975 111.36754668 150.30723299 117.875 150.6875 C118.77138184 150.74921387 119.66776367 150.81092773 120.59130859 150.87451172 C125.46594716 151.12989497 129.74364027 150.95796337 134.515625 149.88671875 C147.80917805 147.27006973 147.80917805 147.27006973 153.78521729 151.16290283 C163.30103266 158.49871893 171.26261505 167.86833059 179 177 C176.6839164 179.3160836 175.68225536 179.44949898 172.52734375 180.03515625 C171.62693359 180.20466797 170.72652344 180.37417969 169.79882812 180.54882812 C168.85458984 180.71833984 167.91035156 180.88785156 166.9375 181.0625 C166.02033203 181.23587891 165.10316406 181.40925781 164.15820312 181.58789062 C155.46864662 183.19524303 146.94784111 184.15206869 138.109375 184.203125 C136.88175446 184.21371445 136.88175446 184.21371445 135.6293335 184.22451782 C101.62828018 184.45124521 101.62828018 184.45124521 86 181 C84.59621094 180.70198486 84.59621094 180.70198486 83.1640625 180.39794922 C62.6502576 175.95218144 43.46921805 168.94784168 25 159 C24.33661621 158.64824707 23.67323242 158.29649414 22.98974609 157.93408203 C-3.36457013 143.90241091 -27.01830569 123.70429824 -46.328125 100.953125 C-48.3350203 98.60862115 -50.41781174 96.34033011 -52.5 94.0625 C-65.12763673 80.07263534 -65.12763673 80.07263534 -65.3125 72.25 C-65.34988281 71.22390625 -65.38726562 70.1978125 -65.42578125 69.140625 C-64.5718918 62.84221104 -59.90642593 58.59011543 -55.6875 54.125 C-54.70374141 53.06834629 -53.72066767 52.01105456 -52.73828125 50.953125 C-52.02986084 50.19225586 -52.02986084 50.19225586 -51.30712891 49.41601562 C-49.62896624 47.59805831 -47.99661659 45.74346689 -46.375 43.875 C-34.80369104 30.58841465 -22.9656417 17.80522125 -9 7 C-8.11570313 6.30648437 -7.23140625 5.61296875 -6.3203125 4.8984375 C-4.22039417 3.25644528 -2.11421712 1.62350994 0 0 Z " fill="#000000" transform="translate(129,184)"/>
<path d="M0 0 C4.96908189 2.30707373 7.3695945 5.25105609 10 10 C10.55419393 12.86470622 10.54770441 15.65761399 10.51757812 18.56884766 C10.5245874 19.40876251 10.53159668 20.24867737 10.53881836 21.11404419 C10.55637026 23.88105708 10.54477935 26.64703978 10.53125 29.4140625 C10.53394724 31.34972325 10.53783159 33.28538268 10.54284668 35.22103882 C10.54873923 39.27786154 10.54019221 43.33433163 10.52148438 47.39111328 C10.4987866 52.56235439 10.51176111 57.73276078 10.53577423 62.90397072 C10.55031718 66.90373878 10.54558596 70.90331331 10.53526306 74.90308762 C10.53261441 76.807856 10.53579921 78.71264256 10.54518127 80.61738968 C10.61193276 97.98975208 7.85898232 110.63120891 -4.3125 123.75 C-17.15630375 135.90574284 -31.30818638 136.46799844 -48.015625 136.43359375 C-49.95994244 136.43816086 -51.90425826 136.443468 -53.84857178 136.44947815 C-57.90660194 136.45837655 -61.96443492 136.45602086 -66.02246094 136.44604492 C-71.21656483 136.43451834 -76.40999258 136.45483976 -81.60400772 136.48396206 C-85.61208391 136.50231671 -89.61999749 136.50203376 -93.62810516 136.49632454 C-95.5434235 136.49617145 -97.45875294 136.50220515 -99.37403107 136.51461601 C-102.04959098 136.52952249 -104.72389308 136.51885443 -107.39941406 136.50170898 C-108.57778839 136.51621094 -108.57778839 136.51621094 -109.77996826 136.53100586 C-114.96888439 136.46150763 -117.85475481 135.37362607 -122 132 C-125.62833663 128.18069828 -126.31000458 125.11720994 -126.5 120 C-126.31000458 114.88279006 -125.62833663 111.81930172 -122 108 C-117.44982744 104.37473566 -113.99309668 103.42176058 -108.30151367 103.50170898 C-107.55431564 103.49619019 -106.80711761 103.49067139 -106.03727722 103.48498535 C-104.42335315 103.47569814 -102.80935577 103.47553301 -101.19542503 103.48357964 C-98.63392723 103.4962623 -96.07349886 103.48487101 -93.51203918 103.46754456 C-88.99288594 103.44087566 -84.47399637 103.43524726 -79.95477295 103.43664551 C-72.73318391 103.43887543 -65.51192266 103.42454456 -58.29046059 103.38105965 C-55.77949626 103.37128461 -53.26905534 103.379907 -50.75810242 103.38975525 C-37.72843017 103.65313636 -37.72843017 103.65313636 -26.5625 97.75 C-23.36625188 92.12460332 -22.70684489 86.5058113 -22.74462891 80.14038086 C-22.74100845 79.38821793 -22.737388 78.63605499 -22.73365784 77.86109924 C-22.72680373 76.24007816 -22.72425086 74.6190342 -22.72560501 72.99799919 C-22.72657603 70.42905622 -22.71356198 67.86052503 -22.69662476 65.29164124 C-22.65051533 57.99222938 -22.62573869 50.69286324 -22.61914062 43.39331055 C-22.61412106 38.91764284 -22.58985614 34.44241048 -22.55381393 29.96689034 C-22.54403331 28.26652199 -22.54167451 26.56609367 -22.54698563 24.86570549 C-22.55407131 22.48673892 -22.5367471 20.10906871 -22.51416016 17.73022461 C-22.52641884 16.68504166 -22.52641884 16.68504166 -22.53892517 15.6187439 C-22.45507291 10.64020291 -21.07452688 7.85785694 -18 4 C-12.72867143 -1.00776214 -6.89190982 -0.92775709 0 0 Z " fill="#000000" transform="translate(470,344)"/>
<path d="M0 0 C4.97233427 2.30858377 7.3384691 5.2689936 10 10 C10.37287777 12.70776401 10.53617016 15.0018437 10.49829102 17.69848633 C10.50380981 18.44568436 10.50932861 19.19288239 10.51501465 19.96272278 C10.52430186 21.57664685 10.52446699 23.19064423 10.51642036 24.80457497 C10.5037377 27.36607277 10.51512899 29.92650114 10.53245544 32.48796082 C10.55912434 37.00711406 10.56475274 41.52600363 10.56335449 46.04522705 C10.56112457 53.26681609 10.57545544 60.48807734 10.61894035 67.70953941 C10.62871539 70.22050374 10.620093 72.73094466 10.61024475 75.24189758 C10.34686364 88.27156983 10.34686364 88.27156983 16.25 99.4375 C21.87539668 102.63374812 27.4941887 103.29315511 33.85961914 103.25537109 C34.61178207 103.25899155 35.36394501 103.262612 36.13890076 103.26634216 C37.75992184 103.27319627 39.3809658 103.27574914 41.00200081 103.27439499 C43.57094378 103.27342397 46.13947497 103.28643802 48.70835876 103.30337524 C56.00777062 103.34948467 63.30713676 103.37426131 70.60668945 103.38085938 C75.08235716 103.38587894 79.55758952 103.41014386 84.03310966 103.44618607 C85.73347801 103.45596669 87.43390633 103.45832549 89.13429451 103.45301437 C91.51326108 103.44592869 93.89093129 103.4632529 96.26977539 103.48583984 C97.31495834 103.47358116 97.31495834 103.47358116 98.3812561 103.46107483 C103.35979709 103.54492709 106.14214306 104.92547312 110 108 C113.62833663 111.81930172 114.31000458 114.88279006 114.5 120 C114.31000458 125.11720994 113.62833663 128.18069828 110 132 C105.03365358 136.03692925 101.56594777 136.58106276 95.43115234 136.51757812 C94.17128006 136.52809204 94.17128006 136.52809204 92.88595581 136.53881836 C90.11894292 136.55637026 87.35296022 136.54477935 84.5859375 136.53125 C82.65027675 136.53394724 80.71461732 136.53783159 78.77896118 136.54284668 C74.72213846 136.54873923 70.66566837 136.54019221 66.60888672 136.52148438 C61.43764561 136.4987866 56.26723922 136.51176111 51.09602928 136.53577423 C47.09626122 136.55031718 43.09668669 136.54558596 39.09691238 136.53526306 C37.192144 136.53261441 35.28735744 136.53579921 33.38261032 136.54518127 C16.01024792 136.61193276 3.36879109 133.85898232 -9.75 121.6875 C-21.90574284 108.84369625 -22.46799844 94.69181362 -22.43359375 77.984375 C-22.43816086 76.04005756 -22.443468 74.09574174 -22.44947815 72.15142822 C-22.45837655 68.09339806 -22.45602086 64.03556508 -22.44604492 59.97753906 C-22.43451834 54.78343517 -22.45483976 49.59000742 -22.48396206 44.39599228 C-22.50231671 40.38791609 -22.50203376 36.38000251 -22.49632454 32.37189484 C-22.49617145 30.4565765 -22.50220515 28.54124706 -22.51461601 26.62596893 C-22.52952249 23.95040902 -22.51885443 21.27610692 -22.50170898 18.60058594 C-22.51137695 17.81500305 -22.52104492 17.02942017 -22.53100586 16.22003174 C-22.46150763 11.03111561 -21.37362607 8.14524519 -18 4 C-12.72867143 -1.00776214 -6.89190982 -0.92775709 0 0 Z " fill="#000000" transform="translate(54,344)"/>
<path d="M0 0 C1.25987228 -0.01051392 1.25987228 -0.01051392 2.54519653 -0.02124023 C5.31220942 -0.03879213 8.07819213 -0.02720123 10.84521484 -0.01367188 C12.7808756 -0.01636911 14.71653503 -0.02025346 16.65219116 -0.02526855 C20.70901388 -0.0311611 24.76548397 -0.02261409 28.82226562 -0.00390625 C33.99350673 0.01879152 39.16391312 0.00581702 44.33512306 -0.01819611 C48.33489113 -0.03273905 52.33446565 -0.02800783 56.33423996 -0.01768494 C58.23900834 -0.01503628 60.14379491 -0.01822108 62.04854202 -0.02760315 C79.42090442 -0.09435464 92.06236125 2.6585958 105.18115234 14.83007812 C117.33689518 27.67388188 117.89915079 41.82576451 117.86474609 58.53320312 C117.8693132 60.47752056 117.87462034 62.42183639 117.88063049 64.3661499 C117.8895289 68.42418007 117.8871732 72.48201304 117.87719727 76.54003906 C117.86567068 81.73414296 117.8859921 86.92757071 117.9151144 92.12158585 C117.93346905 96.12966204 117.9331861 100.13757562 117.92747688 104.14568329 C117.9273238 106.06100162 117.93335749 107.97633106 117.94576836 109.89160919 C117.96067483 112.5671691 117.95000678 115.24147121 117.93286133 117.91699219 C117.94736328 119.09536652 117.94736328 119.09536652 117.9621582 120.29754639 C117.89265998 125.48646252 116.80477841 128.37233293 113.43115234 132.51757812 C109.61185062 136.14591476 106.54836228 136.82758271 101.43115234 137.01757812 C96.31394241 136.82758271 93.25045406 136.14591476 89.43115234 132.51757812 C85.805888 127.96740557 84.85291292 124.51067481 84.93286133 118.8190918 C84.92734253 118.07189377 84.92182373 117.32469574 84.9161377 116.55485535 C84.90685049 114.94093127 84.90668535 113.3269339 84.91473198 111.71300316 C84.92741464 109.15150536 84.91602335 106.59107699 84.8986969 104.02961731 C84.872028 99.51046406 84.86639961 94.9915745 84.86779785 90.47235107 C84.87002777 83.25076204 84.8556969 76.02950079 84.81221199 68.80803871 C84.80243695 66.29707438 84.81105934 63.78663347 84.82090759 61.27568054 C85.0842887 48.2460083 85.0842887 48.2460083 79.18115234 37.08007812 C73.55575566 33.88383001 67.93696364 33.22442301 61.5715332 33.26220703 C60.81937027 33.25858658 60.06720734 33.25496613 59.29225159 33.25123596 C57.6712305 33.24438186 56.05018654 33.24182899 54.42915154 33.24318314 C51.86020856 33.24415415 49.29167738 33.23114011 46.72279358 33.21420288 C39.42338172 33.16809346 32.12401558 33.14331682 24.82446289 33.13671875 C20.34879518 33.13169918 15.87356282 33.10743427 11.39804268 33.07139206 C9.69767434 33.06161143 7.99724601 33.05925263 6.29685783 33.06456375 C3.91789126 33.07164943 1.54022105 33.05432522 -0.83862305 33.03173828 C-1.53541168 33.03991074 -2.23220032 33.04808319 -2.95010376 33.0565033 C-7.92864475 32.97265104 -10.71099071 31.59210501 -14.56884766 28.51757812 C-18.19718429 24.6982764 -18.87885224 21.63478806 -19.06884766 16.51757812 C-18.87885224 11.40036819 -18.19718429 8.33687985 -14.56884766 4.51757812 C-9.60250124 0.48064887 -6.13479542 -0.06348464 0 0 Z " fill="#000000" transform="translate(362.56884765625,31.482421875)"/>
<path d="M0 0 C1.94431744 -0.00456711 3.88863326 -0.00987425 5.83294678 -0.0158844 C9.89097694 -0.0247828 13.94880992 -0.02242711 18.00683594 -0.01245117 C23.20093983 -0.00092459 28.39436758 -0.02124601 33.58838272 -0.05036831 C37.59645891 -0.06872296 41.60437249 -0.06844001 45.61248016 -0.06273079 C47.5277985 -0.0625777 49.44312794 -0.0686114 51.35840607 -0.08102226 C54.03396598 -0.09592874 56.70826808 -0.08526068 59.38378906 -0.06811523 C60.16937195 -0.0777832 60.95495483 -0.08745117 61.76434326 -0.09741211 C66.95325939 -0.02791388 69.83912981 1.05996768 73.984375 4.43359375 C77.61271163 8.25289547 78.29437958 11.31638381 78.484375 16.43359375 C78.29437958 21.55080369 77.61271163 24.61429203 73.984375 28.43359375 C69.43420244 32.05885809 65.97747168 33.01183317 60.28588867 32.93188477 C59.16509163 32.94016296 59.16509163 32.94016296 58.02165222 32.9486084 C56.40772815 32.95789561 54.79373077 32.95806074 53.17980003 32.95001411 C50.61830223 32.93733145 48.05787386 32.94872274 45.49641418 32.96604919 C40.97726094 32.99271809 36.45837137 32.99834649 31.93914795 32.99694824 C24.71755891 32.99471832 17.49629766 33.00904919 10.27483559 33.0525341 C7.76387126 33.06230914 5.25343034 33.05368675 2.74247742 33.0438385 C-10.28719483 32.78045739 -10.28719483 32.78045739 -21.453125 38.68359375 C-24.64937312 44.30899043 -25.30878011 49.92778245 -25.27099609 56.29321289 C-25.27642677 57.42145729 -25.27642677 57.42145729 -25.28196716 58.57249451 C-25.28882127 60.19351559 -25.29137414 61.81455955 -25.29001999 63.43559456 C-25.28904897 66.00453753 -25.30206302 68.57306872 -25.31900024 71.14195251 C-25.36510967 78.44136437 -25.38988631 85.74073051 -25.39648438 93.0402832 C-25.40150394 97.51595091 -25.42576886 101.99118327 -25.46181107 106.46670341 C-25.47159169 108.16707176 -25.47395049 109.86750008 -25.46863937 111.56788826 C-25.46155369 113.94685483 -25.4788779 116.32452504 -25.50146484 118.70336914 C-25.49329239 119.40015778 -25.48511993 120.09694641 -25.47669983 120.81484985 C-25.56055209 125.79339084 -26.94109812 128.57573681 -30.015625 132.43359375 C-33.83492672 136.06193038 -36.89841506 136.74359833 -42.015625 136.93359375 C-47.13283494 136.74359833 -50.19632328 136.06193038 -54.015625 132.43359375 C-58.05255425 127.46724733 -58.59668776 123.99954152 -58.53320312 117.86474609 C-58.5402124 117.02483124 -58.54722168 116.18491638 -58.55444336 115.31954956 C-58.57199526 112.55253667 -58.56040435 109.78655397 -58.546875 107.01953125 C-58.54957224 105.0838705 -58.55345659 103.14821107 -58.55847168 101.21255493 C-58.56436423 97.15573221 -58.55581721 93.09926212 -58.53710938 89.04248047 C-58.5144116 83.87123936 -58.52738611 78.70083297 -58.55139923 73.52962303 C-58.56594218 69.52985497 -58.56121096 65.53028044 -58.55088806 61.53050613 C-58.54823941 59.62573775 -58.55142421 57.72095119 -58.56080627 55.81620407 C-58.62755776 38.44384167 -55.87460732 25.80238484 -43.703125 12.68359375 C-30.85932125 0.52785091 -16.70743862 -0.03440469 0 0 Z " fill="#000000" transform="translate(90.015625,31.56640625)"/>
<path d="M0 0 C2.83721464 1.29134315 4.89788706 2.64720777 7.1005249 4.84655762 C7.68660019 5.42699326 8.27267548 6.00742889 8.87651062 6.60545349 C9.50733047 7.24032181 10.13815033 7.87519012 10.78808594 8.52929688 C11.46166641 9.19937271 12.13524689 9.86944855 12.82923889 10.55982971 C15.05267354 12.77446651 17.26871866 14.9963333 19.484375 17.21875 C21.02536232 18.75839043 22.56664646 20.29773384 24.10821533 21.83679199 C27.33598766 25.06161596 30.56011472 28.2900298 33.78173828 31.52099609 C37.92021704 35.67088825 42.06763399 39.81171297 46.21780014 43.94991302 C49.40058456 47.12548746 52.57861102 50.30578894 55.75519562 53.48756409 C57.28321582 55.01692218 58.81273332 56.54478573 60.34374237 58.07115173 C62.47719057 60.19954684 64.60416568 62.33420226 66.72949219 64.47070312 C67.36840897 65.10557144 68.00732574 65.74043976 68.66560364 66.39454651 C73 70.77147008 73 70.77147008 73 73 C51.60502418 73.57081457 34.03480854 70.43799626 18.01147461 55.27929688 C7.85240409 45.10452455 0.00885734 30.17755882 -0.1953125 15.625 C-0.18219991 13.74989937 -0.15861791 11.8748451 -0.125 10 C-0.11597656 9.03449219 -0.10695312 8.06898438 -0.09765625 7.07421875 C-0.07430635 4.71587901 -0.04156047 2.35807714 0 0 Z " fill="#000000" transform="translate(192,247)"/>
</svg>
